<svg id="Layer_1" data-name="Layer 1" xmlns="http://www.w3.org/2000/svg" viewBox="0 0 156.797 52.399"><defs><style>.cls-1{fill:#231f20}.cls-2{fill:#ef3e42;fill-rule:evenodd}</style></defs><path class="cls-1" d="M23.792 44.813c15.024 0 16.357-13.927 16.559-16.4s-.088-8.367-4.832-8.438-5.57 5.1-4.131 7.674c-1.614-.008-2.789.027-5.508 0-1.64-4.017.07-8.288 2.745-10.752s7-2.763 9.919-1.956c1.658.456 8.078 3.6 7.464 13.682s-5.35 14.612-7.508 16.559c-2.167 1.964-7.718 4.937-14.709 4.946 0 0-.017-1 0-5.315m-16.241.369C5.383 43.235.656 38.7.042 28.623S5.848 15.4 7.506 14.941c2.92-.807 7.244-.517 9.919 1.956s4.386 6.735 2.736 10.752c-2.71.027-3.885-.008-5.5 0 1.438-2.569.622-7.736-4.132-7.674s-5.04 5.973-4.829 8.438 1.535 16.4 16.559 16.4c.008 4.315 0 5.315 0 5.315-6.991-.009-12.551-2.982-14.708-4.946"/><path class="cls-2" d="M23.329 20.918c-.386-5.588.639-7.735 2.214-11.789S24.165 1.652 22.206 0c.72 1.838 0 5.3-1.13 8.1-.929 3.24-.216 10.337 2.253 12.817"/><path class="cls-2" d="M18.788 1.777c2.219 3.755 2.569 3.736 1.61 7s.486 9.364 1.27 10.505c-2.362-1.557-5.478-4.694-4.557-10.757.417-2.7 2.022-4.046 1.677-6.745m5.084 19.081C29.243 16.7 30.3 6.792 27.157 2.485c.729 1.343-.13 4.768-1.219 7.022s-2.725 7.225-2.066 11.354"/><path class="cls-1" d="M42.3 45.539a2.586 2.586 0 11-1.286.346 2.513 2.513 0 011.286-.346zm0 .426a2.144 2.144 0 101.509.629 2.059 2.059 0 00-1.509-.629zm-.582 3.519h-.446v-2.76h.957a2.2 2.2 0 01.716.081.687.687 0 01.335.267.7.7 0 01.126.4.719.719 0 01-.221.536.875.875 0 01-.568.245.875.875 0 01.294.212 3.4 3.4 0 01.348.484l.333.539h-.543l-.242-.433a2.646 2.646 0 00-.415-.6.58.58 0 00-.409-.139h-.265zm0-2.386v.83h.545a.966.966 0 00.506-.1.345.345 0 00.159-.317.341.341 0 00-.154-.321 1.147 1.147 0 00-.545-.092zM62.792 23.8a5.379 5.379 0 01-1.782-.285 3.707 3.707 0 01-2.31-2.271 5.961 5.961 0 01-.014-3.83 4.01 4.01 0 01.9-1.441 3.79 3.79 0 011.4-.894 5.121 5.121 0 011.823-.315 7.169 7.169 0 01.986.061 6.693 6.693 0 01.811.16 5.7 5.7 0 01.707.246c.211.09.4.175.555.253v2.092H65.6c-.11-.091-.246-.2-.41-.328a5.611 5.611 0 00-.563-.374 3.933 3.933 0 00-.693-.311 2.472 2.472 0 00-.8-.127 2.7 2.7 0 00-.9.149 2.176 2.176 0 00-.786.494 2.422 2.422 0 00-.556.883 3.7 3.7 0 00-.213 1.332 3.56 3.56 0 00.23 1.368 2.391 2.391 0 00.58.866 2.124 2.124 0 00.791.458 2.856 2.856 0 00.863.137 2.744 2.744 0 00.812-.123 3.113 3.113 0 00.737-.33 4.722 4.722 0 00.53-.359c.164-.127.3-.238.4-.33h.233v2.069c-.217.1-.424.187-.623.272a4.962 4.962 0 01-.622.222 7.664 7.664 0 01-.8.186 6.47 6.47 0 01-1.024.063zm8.539-.884c-.111.085-.25.189-.416.309a2.962 2.962 0 01-.469.284 2.932 2.932 0 01-.636.2 3.705 3.705 0 01-.724.065 2.207 2.207 0 01-1.552-.575 1.916 1.916 0 01-.625-1.472 1.994 1.994 0 01.319-1.17 2.14 2.14 0 01.9-.715 5.075 5.075 0 011.435-.373q.858-.11 1.777-.163v-.035a.763.763 0 00-.44-.756 3.149 3.149 0 00-1.3-.209 3.666 3.666 0 00-1.1.184c-.39.123-.671.218-.841.284h-.191v-1.561c.22-.058.58-.126 1.077-.205a9.506 9.506 0 011.495-.119 4.627 4.627 0 012.574.55 1.952 1.952 0 01.791 1.724v4.445h-2.074v-.692zm0-1.019v-1.352q-.42.036-.911.1a4.471 4.471 0 00-.745.141 1.036 1.036 0 00-.476.286.721.721 0 00-.165.494 1.292 1.292 0 00.035.329.5.5 0 00.174.242.828.828 0 00.317.17 2.189 2.189 0 00.578.055 1.7 1.7 0 00.631-.127 1.965 1.965 0 00.562-.334zm10.563 1.711H79.8V20.37a7.683 7.683 0 00-.041-.787 1.622 1.622 0 00-.141-.578.686.686 0 00-.342-.313 1.579 1.579 0 00-.628-.1 1.9 1.9 0 00-.582.094 3.037 3.037 0 00-.641.3v4.626h-2.094v-6.536h2.094v.729a5.365 5.365 0 011.073-.668 2.765 2.765 0 011.144-.233 2.2 2.2 0 011.655.617 2.55 2.55 0 01.6 1.84v4.247zm5.872-.692c-.113.085-.251.189-.417.309a3.008 3.008 0 01-.469.284 2.888 2.888 0 01-.637.2 3.684 3.684 0 01-.722.065 2.2 2.2 0 01-1.552-.575 1.912 1.912 0 01-.625-1.472 1.994 1.994 0 01.318-1.17 2.131 2.131 0 01.9-.715A5.048 5.048 0 0186 19.474q.855-.11 1.776-.163v-.035a.763.763 0 00-.44-.756 3.151 3.151 0 00-1.3-.209 3.649 3.649 0 00-1.1.184q-.586.184-.841.284h-.192v-1.566c.221-.058.579-.126 1.077-.205a9.516 9.516 0 011.495-.119 4.627 4.627 0 012.574.55 1.955 1.955 0 01.792 1.724v4.445h-2.075v-.692zm0-1.019v-1.352q-.422.036-.911.1a4.425 4.425 0 00-.746.141 1.022 1.022 0 00-.475.286.721.721 0 00-.165.494 1.345 1.345 0 00.034.329.5.5 0 00.174.242.828.828 0 00.317.17 2.186 2.186 0 00.577.055 1.7 1.7 0 00.632-.127 1.957 1.957 0 00.563-.334zm10.358 1.711H96.03v-.68a4.657 4.657 0 01-1.013.654 2.618 2.618 0 01-1.09.213 2.3 2.3 0 01-1.913-.918A3.921 3.921 0 0191.3 20.4a4.168 4.168 0 01.242-1.474 3.41 3.41 0 01.662-1.1 2.721 2.721 0 01.962-.676 2.867 2.867 0 011.132-.243 3.131 3.131 0 01.965.125 6.493 6.493 0 01.771.318v-2.789h2.094v9.047zm-2.094-1.8v-3.2a1.985 1.985 0 00-.464-.134 2.652 2.652 0 00-.448-.041 1.491 1.491 0 00-1.237.514 2.23 2.23 0 00-.413 1.427 2.308 2.308 0 00.332 1.392 1.25 1.25 0 001.062.432 1.9 1.9 0 00.606-.107 2.1 2.1 0 00.562-.281zm6.216-5.654h-2.219v-1.593h2.219v1.593zm-.062 7.454h-2.094v-6.532h2.094v6.532zm5.928-.776a19.63 19.63 0 01-.417.308 3 3 0 01-.468.284 2.908 2.908 0 01-.637.206 3.776 3.776 0 01-.724.065 2.2 2.2 0 01-1.55-.575 1.914 1.914 0 01-.625-1.473 1.991 1.991 0 01.318-1.17 2.143 2.143 0 01.9-.715 5.16 5.16 0 011.436-.373q.857-.11 1.777-.163v-.035a.764.764 0 00-.441-.756 3.157 3.157 0 00-1.3-.209 3.68 3.68 0 00-1.1.185q-.585.184-.84.284h-.191v-1.566q.332-.087 1.076-.206a9.525 9.525 0 011.5-.119 4.633 4.633 0 012.574.55 1.953 1.953 0 01.793 1.725v4.444h-2.079v-.691zm0-1.02v-1.351q-.421.035-.912.1a4.317 4.317 0 00-.744.142 1.017 1.017 0 00-.476.285.721.721 0 00-.164.494 1.243 1.243 0 00.035.329.489.489 0 00.172.242.819.819 0 00.318.17 2.13 2.13 0 00.576.055 1.705 1.705 0 00.633-.127 1.956 1.956 0 00.562-.334zm10.563 1.796h-2.094V20.37a7.683 7.683 0 00-.041-.787 1.622 1.622 0 00-.141-.578.69.69 0 00-.342-.313 1.583 1.583 0 00-.628-.1 1.893 1.893 0 00-.582.094 3.037 3.037 0 00-.641.3v4.626h-2.094v-6.536h2.094v.729a5.36 5.36 0 011.072-.668 2.77 2.77 0 011.145-.233 2.2 2.2 0 011.654.617 2.542 2.542 0 01.6 1.84v4.247zM62.777 37.1a5.355 5.355 0 01-1.783-.285 3.7 3.7 0 01-2.314-2.265 5.475 5.475 0 01-.322-1.956 5.4 5.4 0 01.307-1.874 4.016 4.016 0 01.9-1.442 3.784 3.784 0 011.4-.893 5.127 5.127 0 011.824-.316 7.144 7.144 0 01.985.062 6.66 6.66 0 01.811.159 5.567 5.567 0 01.706.246c.212.091.4.176.557.253v2.093h-.257c-.108-.092-.245-.2-.411-.328a5.406 5.406 0 00-.561-.375 3.943 3.943 0 00-.694-.311 2.476 2.476 0 00-.8-.127 2.7 2.7 0 00-.9.149 2.186 2.186 0 00-.787.5 2.422 2.422 0 00-.556.882 3.721 3.721 0 00-.212 1.328 3.55 3.55 0 00.23 1.369 2.385 2.385 0 00.579.865 2.127 2.127 0 00.793.459 2.843 2.843 0 00.861.137 2.757 2.757 0 00.807-.122 3.142 3.142 0 00.736-.33 4.737 4.737 0 00.531-.359c.162-.127.3-.237.4-.33h.233v2.069q-.327.146-.623.273a4.96 4.96 0 01-.622.221 7.679 7.679 0 01-.8.186 6.456 6.456 0 01-1.023.063zm8.54-.883c-.113.085-.252.189-.418.309a3.008 3.008 0 01-.469.284 2.888 2.888 0 01-.637.2 3.674 3.674 0 01-.722.066 2.2 2.2 0 01-1.551-.575 1.911 1.911 0 01-.625-1.473 1.989 1.989 0 01.318-1.17 2.128 2.128 0 01.9-.715 5.066 5.066 0 011.435-.373q.855-.11 1.776-.163v-.035a.765.765 0 00-.44-.756 3.145 3.145 0 00-1.3-.209 3.658 3.658 0 00-1.1.185c-.391.123-.671.217-.841.284h-.191v-1.562c.22-.057.578-.126 1.077-.2a9.5 9.5 0 011.494-.119 4.635 4.635 0 012.574.55 1.954 1.954 0 01.793 1.725v4.444h-2.073v-.692zm0-1.019v-1.352q-.423.036-.912.1a4.273 4.273 0 00-.745.142 1.012 1.012 0 00-.476.285.725.725 0 00-.164.494 1.292 1.292 0 00.034.329.491.491 0 00.173.242.828.828 0 00.317.17 2.186 2.186 0 00.577.055 1.7 1.7 0 00.632-.127 1.953 1.953 0 00.564-.334zm8.733-2.82h-.186a1.843 1.843 0 00-.43-.071 6.849 6.849 0 00-.494-.023 4.766 4.766 0 00-.792.058 4.628 4.628 0 00-.739.2v4.369h-2.093v-6.533h2.093v.96a4.271 4.271 0 011.2-.785 2.709 2.709 0 01.941-.191c.074 0 .158 0 .25.006s.176.01.245.017v1.993zm7.543 4.531H85.5v-.68a4.732 4.732 0 01-1.014.655 2.627 2.627 0 01-1.09.212 2.3 2.3 0 01-1.913-.918 3.92 3.92 0 01-.717-2.477 4.191 4.191 0 01.241-1.474 3.406 3.406 0 01.662-1.1 2.737 2.737 0 01.963-.677 2.861 2.861 0 011.131-.242 3.126 3.126 0 01.965.125 6.563 6.563 0 01.772.317v-2.788h2.094v9.047zm-2.094-1.8v-3.2a1.993 1.993 0 00-.465-.134 2.75 2.75 0 00-.448-.041 1.488 1.488 0 00-1.236.515 2.219 2.219 0 00-.413 1.426 2.309 2.309 0 00.331 1.392 1.253 1.253 0 001.063.433 1.893 1.893 0 00.605-.108 2.118 2.118 0 00.563-.281zm6.216-5.753H89.5v-1.594h2.219v1.594zm-.062 7.453h-2.094v-6.531h2.094v6.531zm8.647-3.263a3.41 3.41 0 01-.937 2.539 4.2 4.2 0 01-5.266 0 3.41 3.41 0 01-.937-2.539A3.4 3.4 0 0194.1 31a4.2 4.2 0 015.266.006 3.432 3.432 0 01.931 2.541zm-2.576 1.593a1.675 1.675 0 00.3-.6 3.675 3.675 0 00.1-.977 3.9 3.9 0 00-.1-.968 1.738 1.738 0 00-.289-.625 1.022 1.022 0 00-.446-.338 1.559 1.559 0 00-.56-.1 1.608 1.608 0 00-.535.082 1.075 1.075 0 00-.448.327 1.652 1.652 0 00-.3.624 3.67 3.67 0 00-.114 1 3.949 3.949 0 00.1.93 1.645 1.645 0 00.289.633 1.1 1.1 0 00.442.333 1.525 1.525 0 00.587.1 1.5 1.5 0 00.54-.1.989.989 0 00.437-.324zm10.655-4.761l-2.517 6.531h-2.373l-2.5-6.531h2.209l1.527 4.533 1.511-4.533h2.143zm5.113 5.839c-.113.085-.251.189-.417.309a3.008 3.008 0 01-.469.284 2.888 2.888 0 01-.637.2 3.692 3.692 0 01-.723.066 2.207 2.207 0 01-1.551-.575 1.914 1.914 0 01-.625-1.473 2 2 0 01.318-1.17 2.134 2.134 0 01.9-.715 5.064 5.064 0 011.436-.373q.855-.11 1.776-.163v-.035a.765.765 0 00-.44-.756 3.151 3.151 0 00-1.3-.209 3.663 3.663 0 00-1.1.185c-.39.123-.671.217-.84.284h-.192v-1.562a11.4 11.4 0 011.077-.2 9.494 9.494 0 011.494-.119 4.639 4.639 0 012.575.55 1.955 1.955 0 01.792 1.725v4.444h-2.078v-.692zm0-1.019v-1.352q-.422.036-.912.1a4.312 4.312 0 00-.745.142 1.013 1.013 0 00-.475.285.716.716 0 00-.165.494 1.292 1.292 0 00.034.329.5.5 0 00.174.242.828.828 0 00.317.17 2.18 2.18 0 00.577.055 1.7 1.7 0 00.632-.127 1.948 1.948 0 00.563-.334zm9.67-.352a1.892 1.892 0 01-.906 1.631 4.344 4.344 0 01-2.482.619 6.984 6.984 0 01-1.581-.163 5.907 5.907 0 01-1.14-.361v-1.726h.191c.106.076.227.157.364.246a3.9 3.9 0 00.584.285 4.725 4.725 0 00.738.232 3.836 3.836 0 00.883.1 2.279 2.279 0 00.913-.138.438.438 0 00.3-.407.378.378 0 00-.174-.347 2.3 2.3 0 00-.662-.206 9.734 9.734 0 00-.631-.113 6.641 6.641 0 01-.723-.149 2.572 2.572 0 01-1.318-.723 1.8 1.8 0 01-.43-1.225 1.853 1.853 0 01.893-1.566 4.177 4.177 0 012.437-.626 6.544 6.544 0 011.4.148 5.746 5.746 0 011.049.316v1.645h-.18a4.267 4.267 0 00-1.06-.518 3.77 3.77 0 00-1.2-.2 2.251 2.251 0 00-.85.142q-.346.141-.346.4a.423.423 0 00.157.355 2.121 2.121 0 00.737.244q.319.064.689.126c.245.04.493.092.74.153a2.335 2.335 0 011.22.678 1.712 1.712 0 01.394 1.154zm4.798 2.235a5.637 5.637 0 01-1.559-.2 3.413 3.413 0 01-1.229-.627 2.847 2.847 0 01-.8-1.069 4.176 4.176 0 01.022-3.083 2.954 2.954 0 01.851-1.1 3.458 3.458 0 011.219-.6 5.344 5.344 0 011.436-.192 4.9 4.9 0 011.23.146 5.81 5.81 0 011.052.378v1.788h-.3c-.08-.069-.178-.15-.292-.243a2.779 2.779 0 00-.941-.484 2.3 2.3 0 00-.66-.085 1.6 1.6 0 00-1.284.529 2.155 2.155 0 00-.449 1.438 1.991 1.991 0 00.46 1.422 1.713 1.713 0 001.307.486 2.586 2.586 0 00.71-.09 2.306 2.306 0 00.524-.212 2.624 2.624 0 00.348-.244c.1-.086.193-.169.277-.251h.3v1.79a5.742 5.742 0 01-1.03.37 4.793 4.793 0 01-1.189.137zm10.115-.172h-2.094v-.715a6.18 6.18 0 01-1.065.673 2.663 2.663 0 01-1.152.229 2.177 2.177 0 01-1.667-.622 2.6 2.6 0 01-.585-1.84v-4.256h2.094v3.248c0 .33.012.605.033.824a1.435 1.435 0 00.148.546.676.676 0 00.336.314 1.593 1.593 0 00.629.1 2.054 2.054 0 00.6-.1 2.55 2.55 0 00.631-.292v-4.64h2.094v6.531zm4.06 0h-2.094v-9.047h2.094v9.047zm5.928-.692c-.112.085-.25.189-.416.309a2.617 2.617 0 01-1.106.489 3.692 3.692 0 01-.723.066 2.208 2.208 0 01-1.552-.575 1.918 1.918 0 01-.625-1.473 2 2 0 01.318-1.17 2.143 2.143 0 01.9-.715 5.068 5.068 0 011.434-.373q.858-.11 1.778-.163v-.035a.764.764 0 00-.441-.756 3.142 3.142 0 00-1.3-.209 3.674 3.674 0 00-1.1.185c-.39.123-.67.217-.84.284h-.19v-1.567q.332-.085 1.078-.2a9.506 9.506 0 011.5-.119 4.631 4.631 0 012.573.55 1.953 1.953 0 01.792 1.725v4.444h-2.078v-.692zm0-1.019v-1.352c-.281.024-.584.056-.912.1a4.337 4.337 0 00-.744.142 1.03 1.03 0 00-.477.285.725.725 0 00-.164.494 1.286 1.286 0 00.035.329.5.5 0 00.173.242.836.836 0 00.317.17 2.186 2.186 0 00.577.055 1.7 1.7 0 00.632-.127 1.948 1.948 0 00.563-.334zm8.737-2.82h-.185a1.864 1.864 0 00-.432-.071 6.8 6.8 0 00-.494-.023 4.745 4.745 0 00-.791.058 4.591 4.591 0 00-.738.2v4.369h-2.094v-6.533h2.094v.96a4.266 4.266 0 011.2-.785 2.724 2.724 0 01.943-.191c.073 0 .156 0 .25.006s.174.01.244.017v1.993zm-90.989 14.91a2.471 2.471 0 01-1.082 2.078 4.853 4.853 0 01-2.942.8 8.205 8.205 0 01-1.872-.189 9.764 9.764 0 01-1.495-.477v-2.08h.244a5.128 5.128 0 001.546.857 4.993 4.993 0 001.646.3c.135 0 .312-.011.533-.034a2.158 2.158 0 00.539-.117 1.37 1.37 0 00.421-.263.621.621 0 00.165-.468.628.628 0 00-.24-.491 1.669 1.669 0 00-.706-.316 20.294 20.294 0 00-1.031-.219 7.853 7.853 0 01-1.019-.259 3.191 3.191 0 01-1.571-.962 2.354 2.354 0 01-.48-1.508 2.32 2.32 0 011.084-1.973 4.717 4.717 0 012.785-.765 8.672 8.672 0 011.688.166 7.972 7.972 0 011.443.416v2h-.237a4.621 4.621 0 00-1.28-.7 4.391 4.391 0 00-1.55-.294 3.971 3.971 0 00-.555.038 2.159 2.159 0 00-.531.142 1.012 1.012 0 00-.389.264.583.583 0 00-.163.4.605.605 0 00.262.527 2.938 2.938 0 00.987.334l.915.191q.438.095.943.256a3.156 3.156 0 011.467.887 2.178 2.178 0 01.473 1.456zm8.089-.542a3.41 3.41 0 01-.938 2.539 4.2 4.2 0 01-5.265 0A3.907 3.907 0 0167.7 44.2a4.2 4.2 0 015.265.006 3.432 3.432 0 01.932 2.541zm-2.576 1.593a1.681 1.681 0 00.3-.6 3.627 3.627 0 00.1-.977 3.839 3.839 0 00-.1-.968 1.721 1.721 0 00-.289-.625 1.017 1.017 0 00-.445-.338 1.542 1.542 0 00-.56-.1 1.636 1.636 0 00-.536.082 1.081 1.081 0 00-.447.327 1.7 1.7 0 00-.3.624 3.731 3.731 0 00-.112 1 3.9 3.9 0 00.1.93 1.645 1.645 0 00.289.633 1.1 1.1 0 00.442.333 1.646 1.646 0 001.127.009 1 1 0 00.437-.324zM78.8 50.18a5.612 5.612 0 01-1.56-.2 3.417 3.417 0 01-1.228-.627 2.823 2.823 0 01-.8-1.068 4.183 4.183 0 01.021-3.083 2.966 2.966 0 01.85-1.1 3.486 3.486 0 011.22-.6 5.339 5.339 0 011.436-.193 4.857 4.857 0 011.23.147 5.848 5.848 0 011.053.378v1.788h-.3a17.136 17.136 0 00-.292-.243 2.768 2.768 0 00-.421-.274 2.74 2.74 0 00-.521-.211 2.337 2.337 0 00-.661-.085 1.592 1.592 0 00-1.283.53 2.146 2.146 0 00-.448 1.437 1.989 1.989 0 00.46 1.423 1.712 1.712 0 001.306.485 2.588 2.588 0 00.71-.089 2.306 2.306 0 00.524-.212 2.723 2.723 0 00.348-.245c.1-.085.193-.168.278-.251h.3v1.791a5.779 5.779 0 01-1.031.37 4.842 4.842 0 01-1.189.136zm5.757-7.625h-2.219v-1.593h2.219v1.593zm-.063 7.453H82.4v-6.531h2.093v6.531zm8.415-2.875H88.1a1.521 1.521 0 00.586 1.184 2.6 2.6 0 001.592.41 3.524 3.524 0 001.289-.243 3.988 3.988 0 00.986-.522h.235v1.678a7.736 7.736 0 01-1.337.413 7 7 0 01-1.389.127 4.55 4.55 0 01-3.011-.882A3.116 3.116 0 0186 46.78a3.374 3.374 0 01.99-2.561 3.786 3.786 0 012.719-.945 3.244 3.244 0 012.395.807 3.148 3.148 0 01.8 2.319v.733zM90.815 45.9a1.448 1.448 0 00-.327-.982 1.261 1.261 0 00-.962-.33 1.545 1.545 0 00-1 .312 1.322 1.322 0 00-.438 1zm7.734 4.048a6.128 6.128 0 01-.715.137 7.491 7.491 0 01-.924.048 2.8 2.8 0 01-1.81-.493 2.09 2.09 0 01-.594-1.69V44.9h-.859v-1.423h.853v-1.859h2.1v1.859h1.953V44.9H96.6v2.914a1.231 1.231 0 00.093.459.639.639 0 00.287.322 1.194 1.194 0 00.6.12 2.342 2.342 0 00.8-.2h.174v1.44zm4.205-2.277l1.481-4.194h2.16l-3.631 8.922h-2.278l1.04-2.448-2.537-6.474h2.214l1.551 4.194z"/></svg>